<?xml version="1.0" encoding="utf-8"?>
<!-- Generator: Adobe Illustrator 22.0.1, SVG Export Plug-In . SVG Version: 6.00 Build 0)  -->
<svg version="1.1" id="Capa_1" xmlns="http://www.w3.org/2000/svg" xmlns:xlink="http://www.w3.org/1999/xlink" x="0px" y="0px"
	 viewBox="0 0 0 0" style="enable-background:new 0 0 0 0;" xml:space="preserve">
<style type="text/css">
	.st0{fill:#FFFFFF;}
</style>
<g>
	<g>
		<path class="st0" d="M124.1,312c0.4,0,0.6-0.3,0.8-0.5c1.4-1.5,2.9-2.9,4.3-4.4c0.3-0.3,0.5-0.7,1-0.8c0.1,0.2,0.1,0.4,0.1,0.5
			c0,0.6-0.2,1.1-0.5,1.5c-0.4,0.5-0.8,1.1-1.2,1.5c-1.6,1.6-3.1,3.1-4.7,4.6c-0.4,0.4-0.8,0.7-1.2,1.1c-0.7,0.7-1.3,1.4-1.8,2.2
			c-0.6,0.9-1.2,1.8-1.9,2.7c-0.2,0.3-0.5,0.6-0.9,0.8c-0.5,0.3-0.9,0.2-1.3-0.1c-0.3-0.3-0.4-0.7-0.1-1.2c0.4-0.6,0.8-1.2,1.3-1.8
			c0.7-0.8,1.5-1.6,2.2-2.4c0.9-1,1.7-2.1,2.3-3.4c0.9-1.9,1.1-3.9,0.5-6c-0.1-0.4-0.3-0.8-0.5-1.2c-0.3-0.5-0.7-0.6-1.2-0.3
			c-0.4,0.3-0.8,0.6-1.1,1c-0.4,0.5-0.8,1.1-1.2,1.7c-1.1,2-2.2,4.1-2.7,6.4c-0.3,1.1-0.4,2.3-0.4,3.4c0,0.4-0.1,0.8-0.2,1.1
			c-0.1,0.2-0.3,0.4-0.5,0.4c-0.3,0-0.5-0.1-0.5-0.4c-0.1-0.4-0.3-0.8-0.3-1.2c0-1.8,0-3.6,0.1-5.3c0-0.5,0.1-1,0.1-1.5
			c0.1-2.6,0.2-5.2,0.5-7.7c0.2-2.1,0.3-4.2,0.5-6.3c0.1-1.1,0.3-2.2,0.5-3.3c0-0.3,0.1-0.5,0.2-0.8c0.1-0.2,0.2-0.4,0.5-0.4
			c0.2,0,0.4,0.2,0.5,0.4c0.3,0.6,0.2,1.2,0.2,1.8c-0.3,1.9-0.6,3.8-0.8,5.7c-0.2,2-0.4,4.1-0.6,6.1c-0.1,1.2-0.1,2.3-0.2,3.5
			c0,0.4,0,0.8,0,1.1c0.3,0.2,0.4,0,0.4-0.1c0.2-0.4,0.3-0.8,0.4-1.2c0.6-1.6,1.4-3.1,2.4-4.5c0.3-0.5,0.7-0.9,1.1-1.3
			c0.2-0.2,0.5-0.4,0.7-0.6c0.7-0.4,1.5-0.3,2.1,0.3c0.8,0.8,1.1,1.8,1.4,2.9c0.3,1.3,0.2,2.5-0.1,3.8c-0.1,0.5-0.2,1-0.4,1.5
			C124.2,311.7,124.2,311.8,124.1,312z"/>
		<path class="st0" d="M172.6,311.2c0.1-0.3,0.3-0.6,0.4-0.9c0.5-1.1,0.9-2.2,1.4-3.3c0.6-1.3,1.3-2.5,2.3-3.6
			c0.4-0.5,0.9-0.9,1.4-1.2c1-0.6,1.8-0.4,2.4,0.7c0.5,0.9,0.7,1.8,0.8,2.8c0.2,2.1-0.4,4.1-1.3,5.9c-0.2,0.3-0.3,0.7-0.5,1
			c0,0,0,0.1,0,0.1c0.1,0.2,0.3,0.1,0.4,0c0.4-0.3,0.8-0.6,1.2-0.9c1.8-1.5,3.4-3.2,5-5c0.3-0.3,0.6-0.7,1-1
			c0.2,0.3,0.2,0.6,0.1,0.9c-0.1,0.5-0.2,1-0.5,1.4c-0.5,0.7-1.1,1.4-1.7,2.1c-1.8,1.9-3.8,3.6-5.9,5.2c-0.8,0.6-1.5,1.3-2.3,1.9
			c-0.3,0.2-0.6,0.5-0.9,0.7c-0.6,0.3-1.3,0.2-1.6-0.3c-0.4-0.5-0.4-1.4,0-1.8c0.2-0.2,0.3-0.3,0.5-0.4c0.3-0.2,0.5-0.3,0.8-0.5
			c1.3-0.5,2.1-1.5,2.6-2.8c0.5-1.2,1-2.4,1.2-3.6c0.2-0.9,0.2-1.8,0.1-2.6c-0.1-0.4-0.2-0.9-0.5-1.3c-0.3-0.5-0.7-0.6-1.2-0.3
			c-0.3,0.2-0.7,0.5-1,0.8c-0.8,0.9-1.4,1.8-1.9,2.9c-0.8,1.7-1.4,3.5-2.1,5.3c-0.6,1.8-0.9,3.7-1,5.7c-0.1,1.9-0.2,3.8-0.2,5.7
			c0,0.7-0.1,1.4-0.2,2.1c0,0.3-0.1,0.5-0.3,0.8c-0.3,0.5-0.8,0.5-1.1,0c-0.2-0.3-0.2-0.7-0.2-1c0-1.2,0.1-2.4,0.2-3.6
			c0.1-1.7,0.3-3.3,0.4-5c0.2-3.1,0.2-6.2,0.3-9.3c0-1,0.1-2,0.2-3c0-0.5,0.2-0.9,0.3-1.3c0.1-0.2,0.2-0.5,0.5-0.4
			c0.2,0.1,0.5,0.2,0.5,0.4c0.1,0.4,0.2,0.9,0.2,1.3c0,0.8-0.1,1.5-0.2,2.3c-0.1,0.8-0.2,1.7-0.3,2.5
			C172.3,310.8,172.2,311.1,172.6,311.2z"/>
		<path class="st0" d="M80.2,313.1c-0.6,0.2-0.7,0.6-1,0.9c-0.7,1-1.6,1.9-2.6,2.7c-0.4,0.3-0.8,0.5-1.2,0.7
			c-0.9,0.4-1.5,0.2-1.8-0.7c-0.1-0.4-0.2-0.8-0.2-1.2c-0.1-1.4,0.1-2.8,0.5-4.2c0.6-2.3,1.4-4.5,2.6-6.5c0.5-0.8,1.1-1.5,1.6-2.2
			c0.3-0.4,0.7-0.6,1.1-0.9c1.1-0.7,2.4-0.2,2.7,1.1c0.1,0.4,0.1,0.9,0.1,1.4c0,1-0.1,1.9-0.1,2.9c-0.1,1.3-0.1,2.6-0.2,3.9
			c-0.1,1.9-0.3,3.8-0.4,5.8c-0.1,1.7-0.3,3.4-0.5,5.1c-0.2,1.3-0.5,2.5-1,3.7c-0.3,0.7-0.6,1.3-1.1,1.9c-0.8,0.9-1.7,1.1-2.8,0.6
			c-0.2-0.1-0.4-0.2-0.5-0.3c-1.8-1.2-2.9-2.8-3.4-4.9c0-0.2,0-0.3,0-0.7c0.3,0.4,0.5,0.7,0.7,0.9c0.5,0.6,1.1,1.2,1.6,1.8
			c0.5,0.5,1.2,0.8,1.9,1c1.1,0.3,1.9-0.1,2.5-1.1c0.5-0.8,0.7-1.6,0.8-2.5c0.2-1.7,0.4-3.4,0.5-5.1c0.1-0.8,0.1-1.7,0.2-2.5
			C80.2,314,80.2,313.6,80.2,313.1z M80.7,305.6C80.7,305.6,80.7,305.6,80.7,305.6c0-0.3,0-0.6,0-0.9c0-0.2,0-0.4-0.1-0.6
			c-0.1-0.3-0.3-0.6-0.7-0.7c-0.4-0.1-0.7,0-0.9,0.3c-0.1,0.2-0.3,0.3-0.4,0.5c-1.8,2.6-3,5.4-3.5,8.5c-0.1,0.4-0.1,0.8,0,1.3
			c0.1,0.5,0.5,0.8,1,0.7c0.4-0.1,0.7-0.2,1-0.4c1.1-0.8,2.1-1.8,2.7-3.1c0.3-0.6,0.6-1.3,0.6-2C80.5,308,80.6,306.8,80.7,305.6z"/>
		<path class="st0" d="M6.6,320.4c-0.6-0.4-0.8-1-0.8-1.6c0-0.6,0-1.2,0.1-1.7c0-0.7,0.1-1.4,0.2-2.1c0.1-1.5,0.3-3,0.3-4.5
			c0.1-1.2,0.1-2.5,0.1-3.7c0-0.6-0.2-1.1-0.6-1.6c-0.6-0.7-1.1-1.5-1.5-2.3c-1.3-2.3-2.4-4.6-3.7-6.8c-0.5-1-0.1-1.5,0.7-2
			c0.2-0.1,0.5,0,0.6,0.2c0.3,0.3,0.5,0.7,0.7,1c0.6,1.2,1.2,2.3,1.8,3.5c0.5,0.9,0.9,1.8,1.4,2.6c0.2,0.4,0.6,0.7,0.9,1
			c0.2,0.2,0.5,0.2,0.7-0.1c0.3-0.4,0.5-0.9,0.7-1.3c1.6-3.4,3.2-6.8,4.9-10.3c0.1-0.3,0.3-0.6,0.4-0.9c0.2-0.4,0.8-0.4,1.1-0.1
			c0.2,0.3,0.3,0.6,0.2,0.9c-0.1,0.7-0.3,1.4-0.6,2.1c-0.6,1.2-1.2,2.4-1.8,3.6c-0.9,1.9-1.8,3.8-2.7,5.8c-0.6,1.3-1,2.6-1.5,3.9
			c-0.1,0.3-0.2,0.7-0.2,1c0,0.5,0,1-0.1,1.5c-0.1,3.3-0.2,6.6-0.3,9.8C7.7,319.3,7.5,319.9,6.6,320.4z"/>
		<path class="st0" d="M137.3,313.7c-0.5,0.2-0.6,0.6-0.8,0.9c-0.5,0.8-1.1,1.6-1.6,2.4c-0.5,0.8-1.2,1.4-2,1.9
			c-1.2,0.7-1.7,0.5-2.2-0.8c-0.5-1.4-0.6-2.8-0.4-4.2c0.3-2.4,1-4.8,2-7c0.6-1.3,1.3-2.4,2.3-3.5c0.3-0.3,0.6-0.6,0.9-0.9
			c0.5-0.4,1.1-0.6,1.7-0.5c0.8,0.1,1.3,0.4,1.5,1.2c0.3,1,0.4,2,0.2,3c-0.2,1.3-0.3,2.5-0.5,3.8c-0.1,0.9,0,1.7,0.3,2.5
			c0,0.1,0.1,0.2,0.1,0.3c0.6,1.3,1.4,1.6,2.7,0.9c0.7-0.4,1.3-1,1.8-1.6c1-1.2,1.8-2.5,2.6-3.8c0.2-0.3,0.4-0.7,0.7-1.1
			c0.1,0.3,0.2,0.4,0.2,0.5c-0.1,0.8-0.2,1.6-0.6,2.3c-0.9,1.7-2,3.3-3.2,4.8c-0.3,0.4-0.8,0.8-1.2,1.1c-0.2,0.2-0.5,0.4-0.8,0.5
			c-1.1,0.5-2.1,0.2-2.8-0.8c-0.3-0.4-0.4-0.8-0.6-1.2C137.5,314.3,137.4,314,137.3,313.7z M137.5,306.6c0-0.3,0-0.6,0-0.9
			c0-0.2,0-0.4,0-0.6c-0.1-0.6-0.5-0.9-1.2-0.7c-0.4,0.1-0.7,0.3-1,0.6c-0.3,0.3-0.6,0.7-0.9,1.1c-1.7,2.6-2.6,5.6-2.9,8.7
			c-0.1,0.5,0.1,1,0.2,1.5c0.1,0.5,0.5,0.7,1,0.4c0.5-0.2,0.9-0.5,1.4-0.9c0.8-0.7,1.4-1.5,1.9-2.5C137,311.2,137.5,309,137.5,306.6
			z"/>
		<path class="st0" d="M203,307.4c0.3,1,0.1,1.8-0.3,2.5c-0.9,1.8-2.1,3.5-3.4,5.1c-0.3,0.4-0.8,0.8-1.2,1.1
			c-0.3,0.2-0.7,0.4-1.1,0.5c-1,0.3-1.8,0-2.3-0.9c-0.2-0.4-0.4-0.7-0.6-1.1c-0.1-0.3-0.2-0.6-0.4-1c-0.2,0.3-0.4,0.4-0.6,0.6
			c-0.6,0.9-1.2,1.8-1.8,2.7c-0.5,0.7-1.1,1.3-1.8,1.8c-0.3,0.2-0.7,0.4-1,0.5c-0.4,0.2-0.7,0-0.9-0.3c-0.2-0.2-0.4-0.5-0.5-0.8
			c-0.2-0.6-0.4-1.3-0.4-1.9c-0.2-1.7,0-3.4,0.5-5c0.6-2.3,1.4-4.6,2.8-6.5c0.5-0.8,1.1-1.5,1.9-2c0.4-0.3,0.8-0.5,1.4-0.6
			c1.2,0,1.7,0.3,2,1.4c0.2,0.7,0.3,1.5,0.2,2.3c-0.2,1-0.3,2.1-0.4,3.1c-0.1,1.2-0.2,2.3,0.2,3.4c0.2,0.5,0.4,0.9,0.7,1.3
			c0.3,0.5,0.8,0.6,1.3,0.4c0.5-0.2,0.9-0.4,1.3-0.7c0.8-0.5,1.4-1.2,1.9-2c0.7-1.1,1.4-2.2,2.1-3.3
			C202.7,307.9,202.9,307.7,203,307.4z M187.9,314.8c0.1,0.5,0.2,1.1,0.3,1.6c0.1,0.3,0.4,0.5,0.7,0.3c0.5-0.2,0.9-0.4,1.3-0.7
			c0.9-0.7,1.5-1.6,2-2.5c1.3-2.3,1.7-4.8,1.8-7.5c0-0.3-0.1-0.7-0.1-1c-0.1-0.5-0.4-0.6-0.8-0.6c-0.6,0-1.1,0.4-1.5,0.8
			c-0.7,0.8-1.3,1.6-1.7,2.6c-0.5,1.3-1,2.7-1.4,4C188.1,312.8,187.9,313.8,187.9,314.8z"/>
		<path class="st0" d="M226.7,317.1c-0.1-0.2-0.3-0.4-0.4-0.6c-0.1-0.5-0.2-1-0.3-1.5c-0.1-1.7-0.1-3.3,0.1-5c0.2-1.5,0.3-3,0.6-4.5
			c0.1-0.6,0.3-1.2,0.4-1.8c0.1-0.2,0.2-0.4,0.3-0.6c0.1-0.1,0.3-0.2,0.4-0.1c0.1,0,0.3,0.2,0.3,0.3c0.2,0.8,0.1,1.7,0,2.5
			c-0.4,1.8-0.6,3.6-0.7,5.4c0,0.3,0,0.6,0,0.9c0,0.1,0.1,0.2,0.2,0.4c0.5-0.3,0.7-0.7,0.9-1.1c0.6-1.2,1.2-2.5,1.9-3.7
			c0.3-0.6,0.6-1.1,0.9-1.6c0.2-0.4,0.5-0.7,0.7-1c0.2-0.2,0.4-0.4,0.7-0.6c0.7-0.4,1.5-0.3,1.9,0.5c0.3,0.5,0.5,1.1,0.6,1.6
			c0.2,0.8,0.2,1.7,0.3,2.5c0.1,1,0.1,2,0.3,3c0.1,0.6,0.2,1.2,0.5,1.8c0.4,0.8,1.1,1.1,1.9,0.6c0.5-0.3,1-0.7,1.4-1.2
			c1.2-1.3,2.1-2.7,3-4.3c0.3-0.6,0.6-1.2,0.9-1.7c0.1-0.2,0.2-0.3,0.5-0.5c0.1,0.3,0.2,0.4,0.1,0.5c-0.1,0.5-0.1,0.9-0.3,1.4
			c-1,2.9-2.6,5.4-4.8,7.6c-0.3,0.3-0.7,0.6-1.1,0.8c-1.1,0.6-2.1,0.3-2.6-0.8c-0.3-0.6-0.5-1.2-0.6-1.8c-0.2-1.2-0.4-2.4-0.5-3.7
			c-0.1-0.7-0.2-1.5-0.3-2.2c-0.1-0.4-0.2-0.7-0.4-1.1c-0.2-0.4-0.6-0.5-1-0.2c-0.3,0.2-0.6,0.5-0.8,0.8c-0.3,0.6-0.6,1.1-0.9,1.7
			c-0.6,1.2-1.1,2.4-1.6,3.6c-0.5,1.1-1.1,2.1-1.7,3.1C227.4,316.8,227.2,317.1,226.7,317.1z"/>
		<path class="st0" d="M49.3,305.8c0.2,0.9,0,1.7-0.4,2.4c-1.1,2.4-2.5,4.5-4.4,6.3c-0.5,0.5-1,0.8-1.6,1.2
			c-0.7,0.4-1.3,0.3-1.8-0.4c-0.3-0.4-0.6-0.9-0.7-1.4c-0.2-0.9-0.4-1.7-0.5-2.6c-0.1-0.3-0.1-0.7-0.2-1c0-0.1-0.1-0.2-0.2-0.4
			c-0.2,0.2-0.3,0.4-0.4,0.5c-0.6,1.2-1.1,2.5-1.6,3.7c-0.5,1.1-1,2.1-1.8,3c-0.4,0.4-0.8,0.8-1.2,1.2c-0.1,0.1-0.3,0.2-0.5,0.3
			c-1.2,0.6-2,0.3-2.4-1c-0.3-1-0.5-1.9-0.4-3c0.1-1.3,0.3-2.5,0.4-3.8c0.1-1.2,0.1-2.5,0.2-3.7c0-0.6,0-1.2,0.1-1.9
			c0-0.4,0.2-0.8,0.3-1.2c0.2-0.5,0.9-0.5,1.1,0c0.1,0.3,0.2,0.6,0.3,0.9c0,0.7,0,1.5,0,2.2c-0.2,1.8-0.5,3.6-0.8,5.4
			c-0.1,0.8-0.1,1.6-0.1,2.4c0,0.6,0.1,1.2,0.7,1.4c0.6,0.2,1.1-0.2,1.4-0.6c0.5-0.5,1-1.1,1.4-1.7c1.1-1.8,2-3.6,2.6-5.7
			c0.5-1.6,0.9-3.2,1.3-4.8c0.1-0.4,0.2-0.7,0.4-1.1c0.1-0.2,0.2-0.5,0.5-0.4c0.2,0.1,0.2,0.3,0.2,0.5c0,0.4,0,0.9-0.1,1.3
			c-0.3,2-0.3,4.1-0.1,6.1c0.1,0.9,0.3,1.8,0.6,2.6c0.4,0.8,0.9,1,1.7,0.6c0.5-0.3,0.9-0.6,1.3-1c0.9-0.9,1.7-1.9,2.4-2.9
			c0.6-0.9,1.2-1.9,1.8-2.8C49,306.2,49.1,306,49.3,305.8z"/>
		<path class="st0" d="M113.9,304.8c-0.4,2.1-1.2,2.9-2.9,3.2c-1,0.2-1.9-0.1-2.8-0.6c-0.3-0.2-0.6-0.4-0.9-0.6
			c0,0.2-0.1,0.4-0.1,0.5c0.5,2.8-0.3,5.4-1.5,7.8c-0.3,0.7-0.8,1.3-1.3,1.9c-0.9,1.2-2.2,1.8-3.7,1.9c-0.6,0.1-1.1-0.2-1.5-0.7
			c-0.7-1-1.1-2-1.1-3.2c0-1.6,0.2-3.1,0.6-4.7c0.6-2,1.5-4,2.5-5.8c0.4-0.8,1-1.5,1.6-2.1c1.1-1,1.8-0.9,2.6,0.4c0,0,0,0.1,0.1,0.1
			c0.9,1.9,2.6,2.5,4.5,2.9c1,0.2,1.9-0.1,2.8-0.5C113.2,305.1,113.5,305,113.9,304.8z M99.8,313.8c0,0.2,0,0.5,0,0.7
			c0,0.5,0.2,1,0.4,1.4c0.3,0.4,0.6,0.6,1.1,0.6c0.8,0,1.4-0.3,1.9-0.9c1.8-1.9,2.9-4.2,2.8-6.9c0-0.7-0.2-1.5-0.3-2.2
			c-0.1-0.5-0.4-0.9-0.9-1.1c-0.2-0.1-0.5-0.3-0.7-0.5c-0.6-0.6-1-0.5-1.5,0.2c-0.1,0.1-0.2,0.3-0.2,0.4c-0.7,1.4-1.4,2.9-2,4.3
			C100.1,311.2,99.8,312.5,99.8,313.8z"/>
		<path class="st0" d="M30.6,304.9c0,1.4-0.8,2.5-2.1,2.9c-1.3,0.4-2.4,0.2-3.6-0.4c-0.3-0.2-0.5-0.5-1-0.4c0,0.1,0,0.3,0,0.4
			c0.3,1.2,0.2,2.5-0.1,3.7c-0.4,2-1.1,3.8-2.3,5.5c-0.9,1.2-2,2-3.5,2.3c-0.2,0-0.4,0.1-0.6,0.1c-0.6,0.1-1.1-0.2-1.5-0.7
			c-0.7-1-1.1-2-1.1-3.2c-0.1-1.7,0.3-3.4,0.8-5c0.6-1.9,1.4-3.7,2.4-5.4c0.3-0.6,0.8-1.1,1.2-1.7c0.1-0.2,0.3-0.3,0.5-0.5
			c1.1-1,1.8-0.9,2.6,0.4c0,0,0,0.1,0.1,0.1c0.9,1.9,2.6,2.5,4.5,2.9c1,0.2,1.9-0.1,2.8-0.6C30.1,305.1,30.3,305,30.6,304.9z
			 M23,308.6c-0.1-0.4-0.2-1.2-0.3-2c-0.1-0.4-0.3-0.8-0.6-1.1c-0.4-0.3-0.8-0.6-1.2-0.8c-0.3-0.2-0.6-0.2-0.8,0.1
			c-0.2,0.2-0.4,0.5-0.5,0.7c-0.9,1.7-1.8,3.4-2.3,5.3c-0.3,1.1-0.5,2.2-0.5,3.3c0,0.7,0.2,1.3,0.6,1.9c0.2,0.3,0.6,0.5,1,0.5
			c0.8,0,1.4-0.3,2-0.8C21.9,313.8,22.9,311.7,23,308.6z"/>
		<path class="st0" d="M257.5,307.5c0.1,0.5,0,0.8-0.1,1.2c-1.1,2.6-2.5,5-4.3,7.1c-0.6,0.7-1.2,1.3-1.9,1.9c-0.6,0.6-1.4,1-2.2,1.2
			c-1.3,0.3-2.3-0.1-3.1-1.1c-0.6-0.7-0.8-1.6-1-2.5c-0.3-1.3-0.3-2.7-0.2-4c0.1-1.9,0.3-3.7,0.9-5.5c0.3-1.1,0.8-2.1,1.2-3.1
			c0.3-0.5,0.7-1,1.1-1.5c0.2-0.3,0.6-0.5,0.9-0.7c0.6-0.3,1.2-0.1,1.6,0.5c0.4,0.6,0.6,1.3,0.7,2.1c0.1,1.7-0.3,3.2-1.1,4.7
			c-0.9,1.6-2,3.1-3.2,4.4c-0.6,0.7-0.7,1.4-0.6,2.2c0,0.2,0.1,0.4,0.2,0.7c0.5,1.3,1.6,1.8,2.9,1.4c0.8-0.2,1.5-0.6,2.1-1.1
			c0.8-0.7,1.6-1.4,2.2-2.2c1-1.3,1.9-2.7,2.9-4.1C256.8,308.5,257,308,257.5,307.5z M246.2,310.2c0.2-0.1,0.4-0.2,0.4-0.2
			c0.9-1,1.8-2.1,2.4-3.4c0.3-0.6,0.4-1.1,0.6-1.7c0.1-0.6,0.1-1.2-0.2-1.7c-0.2-0.4-0.6-0.5-0.9-0.2c-0.3,0.3-0.6,0.6-0.8,1
			c-0.9,1.8-1.4,3.7-1.6,5.8C246.2,309.8,246.2,309.9,246.2,310.2z"/>
		<path class="st0" d="M226.4,303.8c0.3,1-0.1,1.6-0.8,2.1c-0.8,0.5-1.7,0.8-2.7,1c-0.9,0.2-1.8,0.3-2.6,0.4c-0.3,0-0.5,0.1-0.8,0.2
			c-0.4,0.1-0.6,0.4-0.6,0.7c-0.5,3-1,6.1-1.2,9.2c0,0.2,0,0.3,0,0.5c-0.1,0.8,0.1,1.6,0.6,2.3c0.4,0.7,0.2,1.3-0.5,1.6
			c-0.4,0.2-0.8,0.1-1-0.2c-0.3-0.5-0.5-1-0.6-1.6c0-1.2-0.1-2.4,0.1-3.6c0.2-1.9,0.5-3.7,0.8-5.6c0.1-0.7,0.2-1.5,0.2-2.2
			c0-0.1,0-0.2,0-0.3c-0.1-0.3-0.3-0.5-0.7-0.5c-0.2,0-0.4,0.1-0.6,0.1c-0.6,0.1-0.8,0-1.1-0.6c-0.4-0.9,0-1.6,0.9-1.8
			c0.2-0.1,0.5,0,0.7-0.1c0.8-0.1,1.1-0.3,1.2-1.1c0.1-0.6,0.2-1.1,0.3-1.7c0.3-2.2,0.6-4.4,1-6.5c0.1-0.4,0.2-0.8,0.3-1.1
			c0.1-0.2,0.2-0.4,0.5-0.4c0.3,0,0.5,0.2,0.6,0.5c0.1,0.2,0.1,0.5,0.1,0.7c-0.1,0.8-0.1,1.5-0.3,2.3c-0.3,1.6-0.6,3.1-0.8,4.7
			c-0.1,0.5-0.1,1-0.1,1.5c0,0.8,0.2,1,1,1c0.8,0,1.5-0.2,2.3-0.3c1-0.1,2-0.4,2.9-0.8C225.7,304,226,303.9,226.4,303.8z"/>
		<path class="st0" d="M158,308.9c0.1,0.4,0,0.8-0.1,1.2c-0.7,2.5-1.9,4.8-3.6,6.8c-0.4,0.5-0.9,0.9-1.4,1.2
			c-1.1,0.7-2.5,0.5-3.3-0.6c-0.4-0.5-0.7-1.1-0.9-1.7c-0.4-1.1-0.5-2.3-0.6-3.5c-0.1-2.3,0.1-4.6,0.4-6.9c0.2-1.8,0.4-3.5,0.5-5.3
			c0.2-1.7,0.3-3.4,0.5-5.1c0.1-0.6,0.2-1.1,0.4-1.7c0.1-0.3,0.4-0.6,0.8-0.6c0.3,0,0.5,0.4,0.5,0.9c0,0.2,0,0.4,0,0.6
			c-0.3,2.1-0.6,4.3-0.8,6.4c-0.2,1.9-0.4,3.8-0.6,5.6c-0.2,1.9-0.2,3.8-0.2,5.7c0,0.7,0.1,1.3,0.2,1.9c0.1,0.4,0.3,0.9,0.5,1.3
			c0.6,1,1.6,1.3,2.6,0.7c0.5-0.3,0.9-0.7,1.3-1.1c0.6-0.7,1.1-1.4,1.5-2.2c0.6-1,1.1-2,1.7-3C157.6,309.3,157.6,309,158,308.9z"/>
		<path class="st0" d="M97.3,308.9c0.3,0.5,0.2,0.9,0.1,1.4c-0.7,2.4-1.9,4.6-3.5,6.5c-0.4,0.5-0.9,0.9-1.5,1.3
			c-1.2,0.8-2.6,0.6-3.4-0.6c-0.7-0.9-0.9-1.9-1.1-3c-0.3-1.8-0.3-3.6-0.2-5.4c0.1-1.5,0.2-2.9,0.4-4.4c0.2-1.8,0.4-3.5,0.6-5.3
			c0.1-1.3,0.3-2.5,0.4-3.8c0.1-0.5,0.1-1.1,0.2-1.6c0.1-0.4,0.3-0.7,0.5-1c0.3-0.4,0.8-0.3,0.9,0.2c0.1,0.2,0.1,0.5,0.1,0.8
			c-0.1,0.7-0.2,1.5-0.2,2.2c-0.2,1.5-0.4,3-0.6,4.5c-0.2,2-0.4,3.9-0.6,5.9c-0.2,1.8-0.2,3.7-0.2,5.6c0,0.7,0.1,1.3,0.3,1.9
			c0.1,0.4,0.3,0.9,0.5,1.3c0.5,1,1.5,1.2,2.5,0.7c0.6-0.3,1.1-0.8,1.5-1.3c0.5-0.7,1-1.4,1.5-2.2c0.5-0.9,1-1.8,1.5-2.7
			C97,309.4,97.2,309.2,97.3,308.9z"/>
		<path class="st0" d="M206.5,314.2c0.2-0.5,0.3-0.9,0.4-1.4c0.4-1.7,0.9-3.4,1.4-5.1c0.3-1.2,0.9-2.3,1.6-3.3
			c0.3-0.4,0.7-0.8,1.1-1.2c0.6-0.5,1.2-0.5,1.8,0c0.6,0.5,0.8,1.2,0.4,1.9c-0.1,0.3-0.4,0.5-0.7,0.5c-0.2,0-0.3,0-0.5,0
			c-0.8,0-1.3,0.4-1.7,1.1c-0.7,1.2-1.3,2.4-1.6,3.7c-0.8,2.9-1.6,5.9-2,8.9c0,0.3-0.1,0.6-0.2,0.9c0,0.5-0.3,0.7-0.7,0.8
			c-0.3,0.1-0.6,0-0.7-0.3c-0.1-0.5-0.3-1-0.3-1.5c-0.1-0.7-0.1-1.5-0.1-2.2c0-2.6,0.1-5.2,0.2-7.9c0-0.5-0.1-1.1,0-1.6
			c0-0.7,0-1.4,0.1-2.1c0-0.3,0.2-0.6,0.3-0.9c0.1-0.2,0.3-0.5,0.6-0.4c0.3,0,0.4,0.3,0.6,0.5c0.2,0.5,0.3,1,0.2,1.6
			c-0.1,0.9-0.2,1.8-0.3,2.6c-0.1,1.5-0.2,3-0.3,4.5C206.1,313.7,206,314,206.5,314.2z"/>
		<path class="st0" d="M50.7,320.3c-0.1-0.2-0.3-0.4-0.4-0.7c-0.1-0.5-0.2-1-0.2-1.5c0-1.3,0-2.6,0.1-3.9c0.1-1.6,0.2-3.2,0.3-4.7
			c0.1-1.6,0.3-3.2,0.5-4.8c0-0.4,0.2-0.8,0.4-1.2c0.1-0.3,0.6-0.3,0.8,0c0.1,0.3,0.2,0.7,0.2,1c0,0.9-0.1,1.9-0.2,2.8
			c-0.3,2-0.6,4-0.6,6c0,0.2,0,0.4,0,0.7c0.3,0,0.3-0.1,0.4-0.3c0.5-1.4,0.9-2.8,1.4-4.2c0.4-1.1,1-2.2,1.7-3.2
			c0.5-0.7,1.1-1.4,1.9-1.8c0.6-0.4,1.3-0.5,2-0.2c0.3,0.1,0.5,0.3,0.7,0.5c0.1,0.2,0.2,0.4,0.3,0.6c0.1,0.3,0.1,0.7-0.3,1
			c-0.1,0-0.3,0.1-0.5,0.1c-1.4,0-2.6,0.6-3.4,1.7c-0.6,0.7-1,1.6-1.4,2.4c-0.7,1.5-1.2,3-1.6,4.6c-0.3,1.3-0.5,2.6-0.7,3.9
			C51.9,319.8,51.6,320.2,50.7,320.3z"/>
		<path class="st0" d="M260.2,313.9c0.4-0.1,0.4-0.4,0.5-0.7c0.4-1.3,0.9-2.6,1.4-3.9c0.4-1.2,1-2.3,1.8-3.3c0.5-0.6,1-1.1,1.7-1.5
			c0.7-0.4,1.4-0.4,2.1-0.1c0.6,0.3,0.9,0.7,0.8,1.4c0,0.2-0.1,0.4-0.1,0.7c-0.3,0-0.5,0.1-0.7,0.1c-1.2,0-2.2,0.5-3,1.4
			c-0.5,0.6-0.9,1.2-1.3,1.9c-1,1.8-1.6,3.8-2.1,5.9c-0.3,1.1-0.5,2.3-0.7,3.4c-0.2,0.9-0.2,1-1.2,1.3c-0.1-0.1-0.3-0.3-0.3-0.4
			c-0.1-0.4-0.2-0.8-0.2-1.2c-0.1-2.1,0-4.2,0.1-6.2c0.1-1.6,0.2-3.2,0.3-4.7c0.1-1.2,0.3-2.3,0.4-3.4c0-0.3,0.2-0.5,0.3-0.7
			c0.2-0.3,0.6-0.3,0.8,0c0.2,0.3,0.2,0.6,0.2,0.9c0,1.2-0.2,2.5-0.3,3.7c-0.2,1.7-0.4,3.4-0.5,5.2
			C260.1,313.4,260.2,313.6,260.2,313.9z"/>
	</g>
	<g>
		<path class="st0" d="M129.5,270.6c-1.4,0.1-2.8,0-4.3,0c0-0.3-0.1-0.5-0.1-0.7c0.3-2.4,0.7-4.7,1-7.1c0.3-2.4,0.7-4.9,1-7.3
			c0.3-2.4,0.7-4.9,1.1-7.3c0.3-2.4,0.7-4.8,1-7.2c0.4-2.5,0.7-5,1.1-7.5c0.3-1.9,0.5-3.8,0.8-5.6c0.3-2.2,0.6-4.4,0.9-6.7
			c0,0,0-0.1,0-0.1c0-0.2,0.1-0.3,0.4-0.4c0.2,0,0.4,0.1,0.5,0.3c0.1,0.3,0.3,0.5,0.4,0.8c1.2,2.5,2.5,5,3.7,7.5
			c5.1,10.4,10.3,20.8,15.4,31.2c0.2,0.4,0.3,0.9,0.8,1.3c0.4-0.2,0.5-0.6,0.7-0.9c1.2-2.5,2.5-5,3.7-7.5
			c5.1-10.5,10.3-21,15.4-31.6c0.1-0.3,0.2-0.6,0.4-0.8c0.1-0.1,0.4-0.2,0.7-0.3c0.1,0.5,0.2,0.8,0.3,1.2c0.5,3.1,0.9,6.3,1.4,9.4
			c0.4,2.9,0.8,5.9,1.2,8.8c0.4,3,0.9,6,1.3,8.9c0.4,2.9,0.8,5.9,1.2,8.8c0.5,3.5,1,7,1.5,10.6c0.1,0.7,0.2,1.4,0.3,2.1
			c-0.1,0.1-0.2,0.2-0.3,0.2c-1.4,0-2.8,0-4.2,0c-0.3-0.4-0.3-0.9-0.4-1.3c-0.4-2.5-0.7-5.1-1-7.6c-0.3-2-0.6-4-0.8-6
			c-0.3-2-0.5-3.9-0.8-5.9c-0.3-2-0.5-4-0.8-6c-0.3-2-0.5-4-0.8-6c-0.1-0.7-0.2-1.5-0.3-2.2c0-0.3-0.2-0.5-0.3-0.8
			c-0.5,0.3-0.6,0.7-0.8,1.1c-1.2,2.5-2.5,5-3.7,7.5c-4.2,8.6-8.5,17.2-12.7,25.8c-0.2,0.4-0.4,0.8-0.7,1.3c-0.4,0-0.7,0-1,0
			c-0.1-0.2-0.3-0.4-0.4-0.6c-1.4-2.7-2.7-5.5-4.1-8.2c-4.3-8.7-8.6-17.4-12.9-26.1c-0.2-0.4-0.3-0.8-0.7-1.1
			c-0.3,0.4-0.3,0.9-0.4,1.3c-0.5,3.4-0.9,6.8-1.4,10.2c-0.4,3.2-0.8,6.4-1.2,9.5c-0.4,3.2-0.9,6.4-1.3,9.5
			c-0.2,1.4-0.4,2.8-0.5,4.1C129.8,269.8,129.8,270.2,129.5,270.6z"/>
		<path class="st0" d="M197.8,270.6c-1.8,0-3.4,0-5.1,0c-0.1-0.6,0.1-1,0.3-1.4c1.4-3.8,2.8-7.5,4.2-11.3
			c6.1-16.4,12.2-32.8,18.3-49.2c0.1-0.4,0.3-0.7,0.4-1.1c0.1-0.4,0.4-0.6,0.8-0.6c0.4,0,0.6,0.3,0.7,0.6c0.3,0.8,0.6,1.6,0.9,2.4
			c7.2,19.6,14.4,39.3,21.6,58.9c0.2,0.5,0.5,1,0.5,1.5c-0.8,0.2-3.2,0.2-4.9,0.1c-0.3-0.3-0.4-0.7-0.6-1.1
			c-2.3-6.1-4.6-12.3-6.9-18.4c-0.1-0.4-0.3-0.8-0.5-1.2c-0.3-0.1-0.5-0.1-0.8-0.2c-0.3,0-0.6,0-0.9,0c-6.1,0-12.3,0-18.4,0
			c-0.5,0-1.1,0-1.6,0.1c-0.2,0.4-0.4,0.8-0.5,1.2c-2.3,6.1-4.6,12.2-6.9,18.4C198.2,269.7,198,270.1,197.8,270.6z M216.7,220.6
			c-0.5,0.2-0.5,0.7-0.7,1.1c-0.9,2.4-1.8,4.8-2.7,7.2c-1.7,4.5-3.3,9-5,13.5c-0.1,0.4-0.4,0.8-0.3,1.2c0.1,0,0.3,0.1,0.4,0.1
			c5.4,0,10.8,0,16.2,0c0.1,0,0.2-0.1,0.3-0.1c0-0.1,0.1-0.2,0-0.3c-2.7-7.4-5.4-14.7-8.1-22.1C216.9,220.9,216.8,220.7,216.7,220.6
			z"/>
		<path class="st0" d="M63.4,249.7c-0.5,0-0.9-0.1-1.3-0.1c-6.4,0-12.8,0-19.1,0c-1.5,0-1.3,0-1.8,1.3c-2.3,6.2-4.6,12.3-6.9,18.5
			c-0.1,0.4-0.3,0.8-0.4,1.1c-1,0.2-4.2,0.2-5.2,0c-0.1-0.4,0.1-0.7,0.3-1.1c1.3-3.6,2.6-7.1,4-10.7c6.3-16.8,12.5-33.7,18.8-50.5
			c0.1-0.4,0.3-0.7,0.4-1c0.4-0.2,0.7-0.2,1.1,0c0.1,0.1,0.1,0.2,0.2,0.3c0.8,2.2,1.6,4.3,2.4,6.5c6.7,18.4,13.5,36.7,20.2,55.1
			c0.2,0.5,0.4,0.9,0.4,1.4c-0.8,0.2-3.5,0.2-4.9,0.1c-0.2-0.4-0.4-0.8-0.5-1.2c-2.3-6-4.5-12.1-6.8-18.1
			C63.9,250.7,63.7,250.3,63.4,249.7z M61,243.5c0.1-0.5-0.1-0.9-0.3-1.3c-2-5.3-3.9-10.6-5.9-16c-0.6-1.7-1.3-3.4-1.9-5.1
			c-0.1-0.2-0.1-0.5-0.5-0.4c-0.1,0.3-0.3,0.7-0.4,1c-1.7,4.7-3.5,9.3-5.2,14c-0.8,2.2-1.7,4.4-2.5,6.6c-0.1,0.4-0.4,0.8-0.2,1.2
			c0.1,0,0.3,0.1,0.4,0.1c5.4,0,10.8,0,16.2,0C60.8,243.6,60.9,243.5,61,243.5z"/>
		<path class="st0" d="M90,270.6c-0.2-1.2-0.3-35.2-0.1-48.9c0-0.3,0-0.7,0.1-1c0.9-0.2,3.5-0.2,4.6,0c0,0.2,0.1,0.4,0.1,0.6
			c0,0.4,0,0.8,0,1.2c0,13.9,0,27.9,0,41.8c0,0.5-0.1,1,0.1,1.5c0.5,0.3,1.1,0.2,1.6,0.2c4.4,0,8.8,0,13.2,0c1,0,2,0,3,0
			c0.4,0,0.8,0,1.1,0.1c0.3,0.8,0.3,3.2,0.1,4.5c-0.4,0.2-0.8,0.1-1.2,0.1c-5.8,0-11.6,0-17.4,0c-1.3,0-2.6,0-3.9,0
			C90.8,270.6,90.4,270.6,90,270.6z"/>
	</g>
	<g>
		<path class="st0" d="M56.4,161.7h156.1c4.9-6.2,9.1-13,12.5-20.2H43.9C47.3,148.7,51.5,155.5,56.4,161.7z"/>
		<path class="st0" d="M38.1,125.4h192.7c1.6-6,2.6-12.2,3.1-18.6H35C35.5,113.2,36.5,119.4,38.1,125.4z"/>
		<path class="st0" d="M134.5,199.4c23.6,0,45.3-8.2,62.4-21.9H72.1C89.1,191.2,110.8,199.4,134.5,199.4z"/>
		<path class="st0" d="M35.2,90.6h198.6c-0.6-6.8-1.9-13.4-3.8-19.7H39C37.1,77.2,35.8,83.8,35.2,90.6z"/>
		<path class="st0" d="M58.2,35.4c-4.9,5.8-9.1,12.1-12.5,18.8h177.5c-3.5-6.8-7.7-13.1-12.5-18.8H58.2z"/>
		<path class="st0" d="M134.5,0c-22.1,0-42.6,7.2-59.1,19.4h118.2C177,7.2,156.6,0,134.5,0z"/>
	</g>
</g>
</svg>
